<svg width="41" height="40" viewBox="0 0 41 40" fill="none" xmlns="http://www.w3.org/2000/svg">
<g clip-path="url(#clip0_133_64)">
<path d="M33.2219 1.99552H30.4482C29.1894 1.99701 28.1694 3.01704 28.1679 4.27578V6.70935L21.8085 0.662008C20.8929 -0.220751 19.443 -0.220751 18.5274 0.662008L2.01896 16.3605C1.27051 17.0716 1.03424 18.1687 1.42358 19.1248C1.77393 20.0544 2.66513 20.6683 3.65852 20.6643H4.16522V37.6663C4.17772 38.9656 5.23956 40.0095 6.53885 39.9999H33.7954C35.0946 40.0095 36.1565 38.9656 36.169 37.6663V20.6643H36.6757C37.6691 20.6683 38.5603 20.0544 38.9106 19.1248C39.3 18.1686 39.0637 17.0716 38.3153 16.3605L35.5023 13.6849V4.27578C35.5006 3.01704 34.4806 1.99701 33.2219 1.99552ZM29.5014 4.27578C29.5021 3.75322 29.9256 3.32974 30.4482 3.32903H33.2219C33.7444 3.32974 34.1679 3.75322 34.1686 4.27578V12.4167L29.5014 7.97754V4.27578ZM37.6717 18.6308C37.5185 19.0494 37.1213 19.3285 36.6756 19.3309H35.5021C35.1339 19.3309 34.8354 19.6294 34.8354 19.9976V37.6663C34.8234 38.2292 34.3583 38.6765 33.7953 38.6664H6.53878C5.97574 38.6765 5.51069 38.2292 5.49866 37.6663V19.9976C5.49866 19.6294 5.20011 19.3309 4.83194 19.3309H3.65844C3.21277 19.3285 2.81553 19.0494 2.66231 18.6308C2.47378 18.1811 2.5834 17.6617 2.93766 17.3267L19.4482 1.62282C19.8471 1.22871 20.4888 1.22871 20.8877 1.62282L37.3969 17.3246C37.7518 17.6603 37.8611 18.1807 37.6717 18.6308Z" fill="#025595"/>
<path fill-rule="evenodd" clip-rule="evenodd" d="M9 24.7082C9 30.6037 13.7971 35.4007 19.6926 35.4007C25.5881 35.4007 30.3851 30.6037 30.3851 24.7082C30.3851 24.3563 30.3686 24.0084 30.3356 23.6652C30.2966 23.2647 29.9419 22.973 29.5395 23.01C29.139 23.0488 28.8455 23.4046 28.8843 23.8062C28.9124 24.1025 28.927 24.4038 28.927 24.7082C28.927 29.7997 24.7842 33.9426 19.6926 33.9426C14.6009 33.9426 10.4581 29.7997 10.4581 24.7082C10.4581 19.6165 14.6009 15.4736 19.6926 15.4736C21.4627 15.4736 23.1851 15.9781 24.6724 16.9337C25.0116 17.1514 25.4618 17.0533 25.6803 16.714C25.8982 16.3748 25.7991 15.9238 25.4607 15.7059C23.7372 14.5997 21.7427 14.0156 19.6926 14.0156C13.7971 14.0156 9 18.8127 9 24.7082ZM20.3925 26.9241C20.5343 27.0669 20.7211 27.1379 20.9076 27.1379C21.0943 27.1379 21.2808 27.0669 21.4238 26.925L32.1164 16.2324C32.4012 15.9476 32.4012 15.4859 32.1164 15.2011C31.8316 14.9163 31.3699 14.9163 31.085 15.2011L20.9087 25.3776L17.0495 21.5185C16.7647 21.2337 16.303 21.2337 16.0183 21.5185C15.7335 21.8032 15.7335 22.2649 16.0183 22.5499L20.3925 26.9241Z" fill="#025595"/>
</g>
<defs>
<clipPath id="clip0_133_64">
<rect width="40" height="40" fill="white" transform="translate(0.167969)"/>
</clipPath>
</defs>
</svg>
