<svg width="60" height="60" viewBox="0 0 60 60" fill="none" xmlns="http://www.w3.org/2000/svg">
<path opacity="0.4" d="M30 42.375C36.9036 42.375 42.5 36.7786 42.5 29.875C42.5 22.9715 36.9036 17.375 30 17.375C23.0964 17.375 17.5 22.9715 17.5 29.875C17.5 36.7786 23.0964 42.375 30 42.375Z" fill="#025595"/>
<path d="M32.8242 30L30.9367 29.3375V25.1H31.3867C32.3992 25.1 33.2242 25.9875 33.2242 27.075C33.2242 27.5875 33.6492 28.0125 34.1617 28.0125C34.6742 28.0125 35.0992 27.5875 35.0992 27.075C35.0992 24.95 33.4367 23.225 31.3867 23.225H30.9367V22.5C30.9367 21.9875 30.5117 21.5625 29.9992 21.5625C29.4867 21.5625 29.0617 21.9875 29.0617 22.5V23.225H28.2492C26.3992 23.225 24.8867 24.7875 24.8867 26.7C24.8867 28.9375 26.1867 29.65 27.1742 30L29.0617 30.6625V34.8875H28.6117C27.5992 34.8875 26.7742 34 26.7742 32.9125C26.7742 32.4 26.3492 31.975 25.8367 31.975C25.3242 31.975 24.8992 32.4 24.8992 32.9125C24.8992 35.0375 26.5617 36.7625 28.6117 36.7625H29.0617V37.5C29.0617 38.0125 29.4867 38.4375 29.9992 38.4375C30.5117 38.4375 30.9367 38.0125 30.9367 37.5V36.775H31.7492C33.5992 36.775 35.1117 35.2125 35.1117 33.3C35.0992 31.05 33.7992 30.3375 32.8242 30ZM27.7992 28.2375C27.1617 28.0125 26.7742 27.8 26.7742 26.7125C26.7742 25.825 27.4367 25.1125 28.2617 25.1125H29.0742V28.6875L27.7992 28.2375ZM31.7492 34.9H30.9367V31.325L32.1992 31.7625C32.8367 31.9875 33.2242 32.2 33.2242 33.2875C33.2242 34.175 32.5617 34.9 31.7492 34.9Z" fill="#025595"/>
<circle opacity="0.05" cx="30" cy="30" r="30" fill="#025595"/>
</svg>
