<svg width="60" height="60" viewBox="0 0 60 60" fill="none" xmlns="http://www.w3.org/2000/svg">
<circle opacity="0.05" cx="30" cy="30" r="30" fill="#025595"/>
<path d="M42.5 43.4375H17.5C16.9875 43.4375 16.5625 43.0125 16.5625 42.5C16.5625 41.9875 16.9875 41.5625 17.5 41.5625H42.5C43.0125 41.5625 43.4375 41.9875 43.4375 42.5C43.4375 43.0125 43.0125 43.4375 42.5 43.4375Z" fill="#025595"/>
<path opacity="0.4" d="M41.25 27.4749V42.4999H18.6875L18.75 27.4624C18.75 26.6999 19.1 25.975 19.7125 25.5L28.4625 18.7C29.3625 17.9875 30.6375 17.9875 31.5375 18.7L33.2125 19.9999L38.75 24.2999L40.2875 25.5C40.9 25.975 41.25 26.6999 41.25 27.4749Z" fill="#025595"/>
<path d="M31.25 36.25H28.75C27.7125 36.25 26.875 37.0875 26.875 38.125V42.5H33.125V38.125C33.125 37.0875 32.2875 36.25 31.25 36.25Z" fill="#025595"/>
<path d="M26.875 32.1875H24.375C23.6875 32.1875 23.125 31.625 23.125 30.9375V29.0625C23.125 28.375 23.6875 27.8125 24.375 27.8125H26.875C27.5625 27.8125 28.125 28.375 28.125 29.0625V30.9375C28.125 31.625 27.5625 32.1875 26.875 32.1875Z" fill="#025595"/>
<path d="M35.625 32.1875H33.125C32.4375 32.1875 31.875 31.625 31.875 30.9375V29.0625C31.875 28.375 32.4375 27.8125 33.125 27.8125H35.625C36.3125 27.8125 36.875 28.375 36.875 29.0625V30.9375C36.875 31.625 36.3125 32.1875 35.625 32.1875Z" fill="#025595"/>
<path d="M38.7504 24.3L33.2129 20H37.4754C38.1629 20 38.7254 20.55 38.7254 21.2375L38.7504 24.3Z" fill="#025595"/>
</svg>
