<svg width="60" height="60" viewBox="0 0 60 60" fill="none" xmlns="http://www.w3.org/2000/svg">
<path opacity="0.4" d="M40.7754 25.5625C39.4629 19.7875 34.4254 17.1875 30.0004 17.1875C30.0004 17.1875 30.0004 17.1875 29.9879 17.1875C25.5754 17.1875 20.5254 19.775 19.2129 25.55C17.7504 32 21.7004 37.4625 25.2754 40.9C26.6004 42.175 28.3004 42.8125 30.0004 42.8125C31.7004 42.8125 33.4004 42.175 34.7129 40.9C38.2879 37.4625 42.2379 32.0125 40.7754 25.5625Z" fill="#025595"/>
<path d="M30 31.825C32.1746 31.825 33.9375 30.0622 33.9375 27.8875C33.9375 25.7129 32.1746 23.95 30 23.95C27.8254 23.95 26.0625 25.7129 26.0625 27.8875C26.0625 30.0622 27.8254 31.825 30 31.825Z" fill="#025595"/>
<circle opacity="0.05" cx="30" cy="30" r="30" fill="#025595"/>
</svg>
