<svg width="41" height="40" viewBox="0 0 41 40" fill="none" xmlns="http://www.w3.org/2000/svg">
<g clip-path="url(#clip0_133_37)">
<path d="M33.8879 1.99552H31.1142C29.8554 1.99701 28.8354 3.01704 28.8339 4.27578V6.70935L22.4745 0.662008C21.5589 -0.220751 20.109 -0.220751 19.1934 0.662008L2.68497 16.3605C1.93653 17.0716 1.70025 18.1687 2.08959 19.1248C2.43995 20.0544 3.33114 20.6683 4.32454 20.6643H4.83124V37.6663C4.84374 38.9656 5.90558 40.0095 7.20487 39.9999H34.4614C35.7607 40.0095 36.8225 38.9656 36.835 37.6663V20.6643H37.3417C38.3351 20.6683 39.2263 20.0544 39.5766 19.1248C39.966 18.1686 39.7297 17.0716 38.9813 16.3605L36.1683 13.6849V4.27578C36.1666 3.01704 35.1466 1.99701 33.8879 1.99552ZM30.1674 4.27578C30.1681 3.75322 30.5916 3.32974 31.1142 3.32903H33.8879C34.4104 3.32974 34.8339 3.75322 34.8346 4.27578V12.4167L30.1674 7.97754V4.27578ZM38.3378 18.6308C38.1845 19.0494 37.7873 19.3285 37.3416 19.3309H36.1681C35.7999 19.3309 35.5014 19.6294 35.5014 19.9976V37.6663C35.4894 38.2292 35.0243 38.6765 34.4613 38.6664H7.20479C6.64176 38.6765 6.1767 38.2292 6.16467 37.6663V19.9976C6.16467 19.6294 5.86612 19.3309 5.49795 19.3309H4.32446C3.87878 19.3285 3.48155 19.0494 3.32833 18.6308C3.13979 18.1811 3.24941 17.6617 3.60367 17.3267L20.1142 1.62282C20.5131 1.22871 21.1548 1.22871 21.5537 1.62282L38.063 17.3246C38.4178 17.6603 38.5272 18.1807 38.3378 18.6308Z" fill="#025595"/>
<path d="M10.832 23.998C10.8293 27.68 12.8518 31.0652 16.0954 32.8076C19.339 34.5501 23.278 34.3674 26.3465 32.3324L30.7563 36.7429C31.2607 37.2471 31.9958 37.444 32.6847 37.2593C33.3736 37.0746 33.9117 36.5364 34.0962 35.8475C34.2808 35.1585 34.0837 34.4235 33.5793 33.9193L29.1674 29.5114C31.5346 25.9429 31.3671 21.2632 28.7508 17.873C26.1346 14.4829 21.6503 13.1344 17.5982 14.5195C13.5461 15.9046 10.8256 19.7157 10.832 23.998ZM32.6399 34.8659C32.7661 34.9884 32.8372 35.1568 32.8372 35.3326C32.8372 35.5084 32.7661 35.6768 32.6399 35.7993C32.3802 36.0565 31.9617 36.0565 31.7019 35.7993L27.4134 31.5109C27.7462 31.2194 28.0593 30.9063 28.3509 30.5734L32.6399 34.8659ZM29.5009 23.998C29.5009 28.7851 25.6202 32.6657 20.8333 32.6657C16.0463 32.6657 12.1656 28.7851 12.1656 23.998C12.1656 19.211 16.0462 15.3304 20.8332 15.3304C25.618 15.3359 29.4954 19.2133 29.5009 23.998Z" fill="#025595"/>
<path fill-rule="evenodd" clip-rule="evenodd" d="M17.8525 17.2966C15.207 18.4768 13.5017 21.1012 13.498 23.9981C13.498 24.3663 13.7966 24.6648 14.1648 24.6648C14.533 24.6648 14.8315 24.3662 14.8315 23.9981C14.835 21.6273 16.2309 19.4799 18.3959 18.5141C18.6181 18.42 18.7721 18.2133 18.7987 17.9735C18.8252 17.7337 18.7201 17.4982 18.5239 17.3579C18.3277 17.2174 18.0709 17.194 17.8525 17.2966Z" fill="#025595"/>
<path d="M20.8327 17.9974C21.201 17.9974 21.4994 17.6989 21.4994 17.3307C21.4994 16.9624 21.201 16.6639 20.8327 16.6639C20.4645 16.6639 20.166 16.9624 20.166 17.3307C20.166 17.6989 20.4645 17.9974 20.8327 17.9974Z" fill="#025595"/>
</g>
<defs>
<clipPath id="clip0_133_37">
<rect width="40" height="40" fill="white" transform="translate(0.833984)"/>
</clipPath>
</defs>
</svg>
