<svg width="41" height="40" viewBox="0 0 41 40" fill="none" xmlns="http://www.w3.org/2000/svg">
<g clip-path="url(#clip0_133_52)">
<path d="M33.5539 1.99552H30.7802C29.5215 1.99701 28.5014 3.01704 28.4999 4.27578V6.70935L22.1405 0.662008C21.225 -0.220751 19.775 -0.220751 18.8595 0.662008L2.35099 16.3605C1.60254 17.0716 1.36627 18.1687 1.75561 19.1248C2.10596 20.0544 2.99716 20.6683 3.99055 20.6643H4.49725V37.6663C4.50975 38.9656 5.5716 40.0095 6.87089 39.9999H34.1274C35.4267 40.0095 36.4885 38.9656 36.501 37.6663V20.6643H37.0077C38.0011 20.6683 38.8923 20.0544 39.2427 19.1248C39.632 18.1686 39.3957 17.0716 38.6473 16.3605L35.8343 13.6849V4.27578C35.8327 3.01704 34.8126 1.99701 33.5539 1.99552ZM29.8335 4.27578C29.8342 3.75322 30.2576 3.32974 30.7802 3.32903H33.5539C34.0764 3.32974 34.4999 3.75322 34.5006 4.27578V12.4167L29.8335 7.97754V4.27578ZM38.0038 18.6308C37.8506 19.0494 37.4533 19.3285 37.0076 19.3309H35.8341C35.4659 19.3309 35.1674 19.6294 35.1674 19.9976V37.6663C35.1554 38.2292 34.6903 38.6765 34.1273 38.6664H6.87081C6.30777 38.6765 5.84272 38.2292 5.83069 37.6663V19.9976C5.83069 19.6294 5.53214 19.3309 5.16397 19.3309H3.99048C3.5448 19.3285 3.14757 19.0494 2.99434 18.6308C2.80581 18.1811 2.91543 17.6617 3.26969 17.3267L19.7803 1.62282C20.1791 1.22871 20.8209 1.22871 21.2197 1.62282L37.729 17.3246C38.0838 17.6603 38.1932 18.1807 38.0038 18.6308Z" fill="#025595"/>
<path d="M18.5888 34.3673L18.5889 34.3673C19.8066 35.5869 21.4259 36.2578 23.1501 36.2578C26.0432 36.2578 28.3975 33.9045 28.3975 31.0114V22.7487C28.3975 22.2683 28.0067 21.8766 27.5254 21.8766C27.0441 21.8766 26.6534 22.2682 26.6534 22.7487V25.1789C26.6534 25.5025 26.3908 25.765 26.0673 25.765C25.7438 25.765 25.4812 25.5025 25.4812 25.1789V21.7766C25.4812 21.2962 25.0905 20.9046 24.6092 20.9046C24.1279 20.9046 23.7371 21.2962 23.7371 21.7766V25.1789C23.7371 25.5025 23.4746 25.765 23.1511 25.765C22.8275 25.765 22.565 25.5025 22.565 25.1789V20.8046C22.565 20.3241 22.1742 19.9325 21.6929 19.9325C21.2116 19.9325 20.8209 20.3241 20.8209 20.8046V25.1789C20.8209 25.5025 20.5583 25.765 20.2348 25.765C19.9113 25.765 19.6487 25.5025 19.6487 25.1789V15.9441C19.6487 15.4637 19.258 15.0721 18.7767 15.0721C18.2954 15.0721 17.9046 15.4637 17.9046 15.9441V28.0952C17.9046 28.2981 17.7991 28.4867 17.6269 28.5934C17.4551 28.7003 17.2385 28.7093 17.0573 28.6193L17.0571 28.6191L13.6811 26.9317L18.5888 34.3673ZM18.5888 34.3673L12.3024 28.0818L12.3022 28.0816M18.5888 34.3673L12.3022 28.0816M12.3022 28.0816C12.1542 27.9344 12.0721 27.7375 12.0721 27.5216M12.3022 28.0816L12.0721 27.5216M12.0721 27.5216C12.0721 27.0889 12.424 26.7371 12.8567 26.7371M12.0721 27.5216L12.8567 26.7371M12.8567 26.7371C13.1414 26.7371 13.4255 26.8043 13.681 26.9316L12.8567 26.7371ZM14.205 25.8827L14.1603 25.9721L14.205 25.8827C13.7886 25.6745 13.3222 25.5649 12.8567 25.5649C11.7767 25.5649 10.9 26.443 10.9 27.5275C10.9 28.0508 11.104 28.5418 11.4737 28.9115L17.7591 35.1969C17.7591 35.1969 17.7591 35.1969 17.7591 35.1969C19.1981 36.6369 21.1143 37.4299 23.1511 37.4299C26.6902 37.4299 29.5696 34.5506 29.5696 31.0114V22.7487C29.5696 21.6212 28.6529 20.7045 27.5254 20.7045C27.1497 20.7045 26.7968 20.8068 26.494 20.9841C26.1837 20.25 25.4559 19.7324 24.6092 19.7324C24.2335 19.7324 23.8806 19.8347 23.5777 20.012C23.2675 19.2779 22.5396 18.7604 21.6929 18.7604C21.3814 18.7604 21.0854 18.8307 20.8209 18.9562V15.9441C20.8209 14.8167 19.9041 13.8999 18.7767 13.8999C17.6492 13.8999 16.7325 14.8167 16.7325 15.9441V27.1469L14.205 25.8827Z" fill="#025595" stroke="#025595" stroke-width="0.2"/>
</g>
<defs>
<clipPath id="clip0_133_52">
<rect width="40" height="40" fill="white" transform="translate(0.5)"/>
</clipPath>
</defs>
</svg>
