<svg width="39" height="40" viewBox="0 0 39 40" fill="none" xmlns="http://www.w3.org/2000/svg">
<path d="M32.5539 1.99552H29.7802C28.5215 1.99701 27.5014 3.01704 27.4999 4.27578V6.70935L21.1405 0.662008C20.225 -0.220751 18.775 -0.220751 17.8595 0.662008L1.35099 16.3605C0.602544 17.0716 0.366267 18.1687 0.755608 19.1248C1.10596 20.0544 1.99716 20.6683 2.99055 20.6643H3.49725V37.6663C3.50975 38.9656 4.5716 40.0095 5.87089 39.9999H33.1274C34.4267 40.0095 35.4885 38.9656 35.501 37.6663V20.6643H36.0077C37.0011 20.6683 37.8923 20.0544 38.2427 19.1248C38.632 18.1686 38.3957 17.0716 37.6473 16.3605L34.8343 13.6849V4.27578C34.8327 3.01704 33.8126 1.99701 32.5539 1.99552ZM28.8335 4.27578C28.8342 3.75322 29.2576 3.32974 29.7802 3.32903H32.5539C33.0764 3.32974 33.4999 3.75322 33.5006 4.27578V12.4167L28.8335 7.97754V4.27578ZM37.0038 18.6308C36.8506 19.0494 36.4533 19.3285 36.0076 19.3309H34.8341C34.4659 19.3309 34.1674 19.6294 34.1674 19.9976V37.6663C34.1554 38.2292 33.6903 38.6765 33.1273 38.6664H5.87081C5.30777 38.6765 4.84272 38.2292 4.83069 37.6663V19.9976C4.83069 19.6294 4.53214 19.3309 4.16397 19.3309H2.99048C2.5448 19.3285 2.14757 19.0494 1.99434 18.6308C1.80581 18.1811 1.91543 17.6617 2.26969 17.3267L18.7803 1.62282C19.1791 1.22871 19.8209 1.22871 20.2197 1.62282L36.729 17.3246C37.0838 17.6603 37.1932 18.1807 37.0038 18.6308Z" fill="white"/>
<path d="M17.5888 34.3673L17.5889 34.3673C18.8066 35.5869 20.4259 36.2578 22.1501 36.2578C25.0432 36.2578 27.3975 33.9045 27.3975 31.0114V22.7487C27.3975 22.2683 27.0067 21.8766 26.5254 21.8766C26.0441 21.8766 25.6534 22.2682 25.6534 22.7487V25.1789C25.6534 25.5025 25.3908 25.765 25.0673 25.765C24.7438 25.765 24.4812 25.5025 24.4812 25.1789V21.7766C24.4812 21.2962 24.0905 20.9046 23.6092 20.9046C23.1279 20.9046 22.7371 21.2962 22.7371 21.7766V25.1789C22.7371 25.5025 22.4746 25.765 22.1511 25.765C21.8275 25.765 21.565 25.5025 21.565 25.1789V20.8046C21.565 20.3241 21.1742 19.9325 20.6929 19.9325C20.2116 19.9325 19.8209 20.3241 19.8209 20.8046V25.1789C19.8209 25.5025 19.5583 25.765 19.2348 25.765C18.9113 25.765 18.6487 25.5025 18.6487 25.1789V15.9441C18.6487 15.4637 18.258 15.0721 17.7767 15.0721C17.2954 15.0721 16.9046 15.4637 16.9046 15.9441V28.0952C16.9046 28.2981 16.7991 28.4867 16.6269 28.5934C16.4551 28.7003 16.2385 28.7093 16.0573 28.6193L16.0571 28.6191L12.6811 26.9317L17.5888 34.3673ZM17.5888 34.3673L11.3024 28.0818L11.3022 28.0816M17.5888 34.3673L11.3022 28.0816M11.3022 28.0816C11.1542 27.9344 11.0721 27.7375 11.0721 27.5216M11.3022 28.0816L11.0721 27.5216M11.0721 27.5216C11.0721 27.0889 11.424 26.7371 11.8567 26.7371M11.0721 27.5216L11.8567 26.7371M11.8567 26.7371C12.1414 26.7371 12.4255 26.8043 12.681 26.9316L11.8567 26.7371ZM13.205 25.8827L13.1603 25.9721L13.205 25.8827C12.7886 25.6745 12.3222 25.5649 11.8567 25.5649C10.7767 25.5649 9.9 26.443 9.9 27.5275C9.9 28.0508 10.104 28.5418 10.4737 28.9115L16.7591 35.1969C16.7591 35.1969 16.7591 35.1969 16.7591 35.1969C18.1981 36.6369 20.1143 37.4299 22.1511 37.4299C25.6902 37.4299 28.5696 34.5506 28.5696 31.0114V22.7487C28.5696 21.6212 27.6529 20.7045 26.5254 20.7045C26.1497 20.7045 25.7968 20.8068 25.494 20.9841C25.1837 20.25 24.4559 19.7324 23.6092 19.7324C23.2335 19.7324 22.8806 19.8347 22.5777 20.012C22.2675 19.2779 21.5396 18.7604 20.6929 18.7604C20.3814 18.7604 20.0854 18.8307 19.8209 18.9562V15.9441C19.8209 14.8167 18.9041 13.8999 17.7767 13.8999C16.6492 13.8999 15.7325 14.8167 15.7325 15.9441V27.1469L13.205 25.8827Z" fill="white" stroke="white" stroke-width="0.2"/>
</svg>
