<svg width="176" height="48" viewBox="0 0 176 48" fill="none" xmlns="http://www.w3.org/2000/svg">
<rect width="48" height="48" rx="24" fill="#025595"/>
<path d="M29 15.5001C29 15.3674 28.9473 15.2403 28.8536 15.1465C28.7598 15.0527 28.6326 15.0001 28.5 15.0001H26C24.7411 14.9373 23.5086 15.3754 22.5717 16.2186C21.6348 17.0618 21.0698 18.2415 21 19.5001V22.2001H18.5C18.3674 22.2001 18.2402 22.2527 18.1464 22.3465C18.0527 22.4403 18 22.5674 18 22.7001V25.3001C18 25.4327 18.0527 25.5598 18.1464 25.6536C18.2402 25.7474 18.3674 25.8001 18.5 25.8001H21V32.5001C21 32.6327 21.0527 32.7598 21.1464 32.8536C21.2402 32.9474 21.3674 33.0001 21.5 33.0001H24.5C24.6326 33.0001 24.7598 32.9474 24.8536 32.8536C24.9473 32.7598 25 32.6327 25 32.5001V25.8001H27.62C27.7312 25.8017 27.8397 25.7661 27.9285 25.6991C28.0172 25.6321 28.0811 25.5374 28.11 25.4301L28.83 22.8301C28.8499 22.7562 28.8526 22.6787 28.8378 22.6036C28.8231 22.5286 28.7913 22.4579 28.7449 22.397C28.6985 22.3362 28.6388 22.2868 28.5704 22.2526C28.5019 22.2185 28.4265 22.2005 28.35 22.2001H25V19.5001C25.0249 19.2525 25.1411 19.0232 25.326 18.8567C25.5109 18.6903 25.7512 18.5988 26 18.6001H28.5C28.6326 18.6001 28.7598 18.5474 28.8536 18.4536C28.9473 18.3598 29 18.2327 29 18.1001V15.5001Z" fill="white"/>
<rect x="64" width="48" height="48" rx="24" fill="#025595"/>
<path d="M84.0803 31.9998C85.559 32.0493 87.0326 31.8018 88.414 31.2721C89.7955 30.7424 91.0567 29.9411 92.1232 28.9156C93.1897 27.8901 94.0398 26.6613 94.6233 25.3017C95.2067 23.9421 95.5118 22.4793 95.5203 20.9998C96.1979 20.1612 96.7011 19.1956 97.0003 18.1598C97.0226 18.078 97.0208 17.9914 96.9951 17.9106C96.9694 17.8297 96.9208 17.7581 96.8553 17.7042C96.7898 17.6503 96.7101 17.6165 96.6258 17.6068C96.5416 17.5972 96.4563 17.6121 96.3803 17.6498C96.0258 17.8205 95.6266 17.8756 95.2391 17.8074C94.8516 17.7392 94.4953 17.5512 94.2203 17.2698C93.8692 16.8854 93.4446 16.5753 92.9715 16.358C92.4985 16.1407 91.9866 16.0206 91.4662 16.0047C90.9459 15.9889 90.4276 16.0776 89.9422 16.2657C89.4568 16.4538 89.0141 16.7375 88.6403 17.0998C88.1285 17.5955 87.7536 18.2151 87.5521 18.8985C87.3506 19.5819 87.3293 20.3058 87.4903 20.9998C84.1403 21.1998 81.8403 19.6098 80.0003 17.4298C79.945 17.3672 79.8727 17.3221 79.7922 17.2999C79.7117 17.2777 79.6264 17.2794 79.5469 17.3049C79.4674 17.3303 79.397 17.3784 79.3443 17.4432C79.2916 17.508 79.259 17.5867 79.2503 17.6698C78.8998 19.6142 79.1526 21.6193 79.9749 23.4159C80.7972 25.2124 82.1495 26.7143 83.8503 27.7198C82.7099 29.0276 81.1085 29.8445 79.3803 29.9998C79.2877 30.0152 79.2022 30.0591 79.1358 30.1254C79.0694 30.1917 79.0255 30.2772 79.01 30.3698C78.9946 30.4623 79.0085 30.5574 79.0498 30.6417C79.0911 30.726 79.1577 30.7952 79.2403 30.8398C80.7438 31.5912 82.3995 31.988 84.0803 31.9998Z" fill="white"/>
<rect x="128" width="48" height="48" rx="24" fill="#025595"/>
<path d="M155.151 20.3999C154.384 20.3973 153.625 20.5458 152.916 20.837C152.207 21.1282 151.562 21.5563 151.019 22.0969C150.476 22.6375 150.044 23.2799 149.749 23.9873C149.455 24.6948 149.302 25.4535 149.301 26.2199V32.0999C149.301 32.3386 149.396 32.5676 149.564 32.7363C149.733 32.9051 149.962 32.9999 150.201 32.9999H152.301C152.539 32.9999 152.768 32.9051 152.937 32.7363C153.106 32.5676 153.201 32.3386 153.201 32.0999V26.2199C153.201 25.9473 153.258 25.6778 153.369 25.4288C153.48 25.1798 153.642 24.957 153.845 24.7749C154.048 24.5928 154.287 24.4555 154.546 24.3719C154.806 24.2884 155.08 24.2604 155.351 24.2899C155.837 24.3512 156.283 24.5886 156.606 24.9572C156.929 25.3259 157.105 25.8001 157.101 26.2899V32.0999C157.101 32.3386 157.196 32.5676 157.364 32.7363C157.533 32.9051 157.762 32.9999 158.001 32.9999H160.101C160.339 32.9999 160.568 32.9051 160.737 32.7363C160.906 32.5676 161.001 32.3386 161.001 32.0999V26.2199C160.999 25.4535 160.847 24.6948 160.552 23.9873C160.257 23.2799 159.826 22.6375 159.283 22.0969C158.739 21.5563 158.095 21.1282 157.386 20.837C156.677 20.5458 155.917 20.3973 155.151 20.3999Z" fill="white"/>
<path d="M146.6 21.2998H143.9C143.403 21.2998 143 21.7027 143 22.1998V32.0998C143 32.5969 143.403 32.9998 143.9 32.9998H146.6C147.097 32.9998 147.5 32.5969 147.5 32.0998V22.1998C147.5 21.7027 147.097 21.2998 146.6 21.2998Z" fill="white"/>
<path d="M145.25 19.5C146.493 19.5 147.5 18.4926 147.5 17.25C147.5 16.0074 146.493 15 145.25 15C144.007 15 143 16.0074 143 17.25C143 18.4926 144.007 19.5 145.25 19.5Z" fill="white"/>
</svg>
