<svg width="135" height="25" viewBox="0 0 135 25" fill="none" xmlns="http://www.w3.org/2000/svg">
<path d="M14.3016 3.65527L16.135 7.32194C16.385 7.83236 17.0516 8.32194 17.6141 8.41569L20.937 8.96777C23.062 9.32194 23.562 10.8636 22.0308 12.3844L19.4475 14.9678C19.01 15.4053 18.7704 16.249 18.9058 16.8532L19.6454 20.0511C20.2287 22.5824 18.885 23.5615 16.6454 22.2386L13.5308 20.3949C12.9683 20.0615 12.0412 20.0615 11.4683 20.3949L8.35371 22.2386C6.12454 23.5615 4.77037 22.5719 5.35371 20.0511L6.09329 16.8532C6.22871 16.249 5.98912 15.4053 5.55162 14.9678L2.96829 12.3844C1.44746 10.8636 1.93704 9.32194 4.06204 8.96777L7.38496 8.41569C7.93704 8.32194 8.60371 7.83236 8.85371 7.32194L10.687 3.65527C11.687 1.66569 13.312 1.66569 14.3016 3.65527Z" fill="#FFDC08"/>
<path d="M41.8016 3.65527L43.635 7.32194C43.885 7.83236 44.5516 8.32194 45.1141 8.41569L48.437 8.96777C50.562 9.32194 51.062 10.8636 49.5308 12.3844L46.9475 14.9678C46.51 15.4053 46.2704 16.249 46.4058 16.8532L47.1454 20.0511C47.7287 22.5824 46.385 23.5615 44.1454 22.2386L41.0308 20.3949C40.4683 20.0615 39.5412 20.0615 38.9683 20.3949L35.8537 22.2386C33.6245 23.5615 32.2704 22.5719 32.8537 20.0511L33.5933 16.8532C33.7287 16.249 33.4891 15.4053 33.0516 14.9678L30.4683 12.3844C28.9475 10.8636 29.437 9.32194 31.562 8.96777L34.885 8.41569C35.437 8.32194 36.1037 7.83236 36.3537 7.32194L38.187 3.65527C39.187 1.66569 40.812 1.66569 41.8016 3.65527Z" fill="#FFDC08"/>
<path d="M69.3016 3.65527L71.135 7.32194C71.385 7.83236 72.0516 8.32194 72.6141 8.41569L75.937 8.96777C78.062 9.32194 78.562 10.8636 77.0308 12.3844L74.4475 14.9678C74.01 15.4053 73.7704 16.249 73.9058 16.8532L74.6454 20.0511C75.2287 22.5824 73.885 23.5615 71.6454 22.2386L68.5308 20.3949C67.9683 20.0615 67.0412 20.0615 66.4683 20.3949L63.3537 22.2386C61.1245 23.5615 59.7704 22.5719 60.3537 20.0511L61.0933 16.8532C61.2287 16.249 60.9891 15.4053 60.5516 14.9678L57.9683 12.3844C56.4475 10.8636 56.937 9.32194 59.062 8.96777L62.385 8.41569C62.937 8.32194 63.6037 7.83236 63.8537 7.32194L65.687 3.65527C66.687 1.66569 68.312 1.66569 69.3016 3.65527Z" fill="#FFDC08"/>
<path d="M96.8016 3.65527L98.635 7.32194C98.885 7.83236 99.5516 8.32194 100.114 8.41569L103.437 8.96777C105.562 9.32194 106.062 10.8636 104.531 12.3844L101.947 14.9678C101.51 15.4053 101.27 16.249 101.406 16.8532L102.145 20.0511C102.729 22.5824 101.385 23.5615 99.1454 22.2386L96.0308 20.3949C95.4683 20.0615 94.5412 20.0615 93.9683 20.3949L90.8537 22.2386C88.6245 23.5615 87.2704 22.5719 87.8537 20.0511L88.5933 16.8532C88.7287 16.249 88.4891 15.4053 88.0516 14.9678L85.4683 12.3844C83.9475 10.8636 84.437 9.32194 86.562 8.96777L89.885 8.41569C90.437 8.32194 91.1037 7.83236 91.3537 7.32194L93.187 3.65527C94.187 1.66569 95.812 1.66569 96.8016 3.65527Z" fill="#FFDC08"/>
<path d="M124.302 3.65527L126.135 7.32194C126.385 7.83236 127.052 8.32194 127.614 8.41569L130.937 8.96777C133.062 9.32194 133.562 10.8636 132.031 12.3844L129.447 14.9678C129.01 15.4053 128.77 16.249 128.906 16.8532L129.645 20.0511C130.229 22.5824 128.885 23.5615 126.645 22.2386L123.531 20.3949C122.968 20.0615 122.041 20.0615 121.468 20.3949L118.354 22.2386C116.125 23.5615 114.77 22.5719 115.354 20.0511L116.093 16.8532C116.229 16.249 115.989 15.4053 115.552 14.9678L112.968 12.3844C111.447 10.8636 111.937 9.32194 114.062 8.96777L117.385 8.41569C117.937 8.32194 118.604 7.83236 118.854 7.32194L120.687 3.65527C121.687 1.66569 123.312 1.66569 124.302 3.65527Z" fill="#FFDC08"/>
</svg>
